<svg height="512" viewBox="0 0 58 58" width="512" xmlns="http://www.w3.org/2000/svg"><g id="Page-1" fill="none" fill-rule="evenodd"><g id="001---Mobile-Plane-Ticket" fill-rule="nonzero"><rect id="Rectangle-path" fill="#62b8cd" height="58" rx="3" width="34" x="12"/><path id="Shape" d="m46 3v52c0 1.6568542-1.3431458 3-3 3h-28c-1.6568542 0-3-1.3431458-3-3v-7.32c11.73-4.19 29.08-15.82 24.81-47.68h6.19c1.6568542 0 3 1.34314575 3 3z" fill="#1ea7ce"/><path id="Shape" d="m39 0-2.861 3.052c-.5672653.60498515-1.3596648.94815313-2.189.948h-9.9c-.8293352.00015313-1.6217347-.34301485-2.189-.948l-2.861-3.052z" fill="#1d80bd"/><path id="Shape" d="m58 15v26c0 1.6568542-1.3431458 3-3 3h-11.13c-.4698179-.0148296-.8714131-.3426624-.98-.8-.2652837-.9511312-.9783699-1.712752-1.91-2.04-.6359154-.2133516-1.3240846-.2133516-1.96 0-.9316301.327248-1.6447163 1.0888688-1.91 2.04-.1085869.4573376-.5101821.7851704-.98.8h-33.13c-1.65685425 0-3-1.3431458-3-3v-26c0-1.6568542 1.34314575-3 3-3h33.13c.4698179.0148296.8714131.3426624.98.8.2652837.9511312.9783699 1.712752 1.91 2.04.6359154.2133516 1.3240846.2133516 1.96 0 .9316301-.327248 1.6447163-1.0888688 1.91-2.04.1085869-.4573376.5101821-.7851704.98-.8h11.13c.7956495 0 1.5587112.3160705 2.1213203.8786797.5626092.5626091.8786797 1.3256708.8786797 2.1213203z" fill="#f1c200"/><g fill="#f49a00"><path id="Shape" d="m41 40v1c.0038843.0541287-.0029112.108493-.02.16-.6359154-.2133516-1.3240846-.2133516-1.96 0-.0170888-.051507-.0238843-.1058713-.02-.16v-1c0-.5522847.4477153-1 1-1s1 .4477153 1 1z"/><path id="Shape" d="m40 37c-.5522847 0-1-.4477153-1-1v-1c0-.5522847.4477153-1 1-1s1 .4477153 1 1v1c0 .5522847-.4477153 1-1 1z"/><path id="Shape" d="m40 32c-.5522847 0-1-.4477153-1-1v-1c0-.5522847.4477153-1 1-1s1 .4477153 1 1v1c0 .5522847-.4477153 1-1 1z"/><path id="Shape" d="m40 27c-.5522847 0-1-.4477153-1-1v-1c0-.5522847.4477153-1 1-1s1 .4477153 1 1v1c0 .5522847-.4477153 1-1 1z"/><path id="Shape" d="m40 22c-.5522847 0-1-.4477153-1-1v-1c0-.5522847.4477153-1 1-1s1 .4477153 1 1v1c0 .5522847-.4477153 1-1 1z"/><path id="Shape" d="m41 15v1c0 .5522847-.4477153 1-1 1s-1-.4477153-1-1v-1c-.0038843-.0541287.0029112-.108493.02-.16.6359154.2133516 1.3240846.2133516 1.96 0 .0170888.051507.0238843.1058713.02.16z"/></g><path id="Shape" d="m46 40c-.5522847 0-1-.4477153-1-1v-4c0-.5522847.4477153-1 1-1s1 .4477153 1 1v4c0 .5522847-.4477153 1-1 1z" fill="#3d5c6d"/><path id="Shape" d="m50 40c-.5522847 0-1-.4477153-1-1v-4c0-.5522847.4477153-1 1-1s1 .4477153 1 1v4c0 .5522847-.4477153 1-1 1z" fill="#3d5c6d"/><path id="Shape" d="m54 40c-.5522847 0-1-.4477153-1-1v-4c0-.5522847.4477153-1 1-1s1 .4477153 1 1v4c0 .5522847-.4477153 1-1 1z" fill="#3d5c6d"/><path id="Shape" d="m58 29v2h-12c-.5522847 0-1-.4477153-1-1s.4477153-1 1-1z" fill="#e77d00"/><path id="Shape" d="m58 25v2h-12c-.5522847 0-1-.4477153-1-1s.4477153-1 1-1z" fill="#e77d00"/><rect id="Rectangle-path" fill="#34495f" height="6" rx="1" width="6" x="46" y="16"/><path id="Shape" d="m25 26-1.839-9.2c-.0951286-.4660347-.5053558-.8005727-.981-.8h-1.18c-.5522847 0-1 .4477153-1 1v9z" fill="#34495f"/><path id="Shape" d="m12 26-1.749-4.371c-.1516748-.3796505-.5191728-.6287412-.928-.629h-1.323c-.55228475 0-1 .4477153-1 1v4z" fill="#34495f"/><path id="Shape" d="m12 30-1.749 4.371c-.1516748.3796505-.5191728.6287412-.928.629h-1.323c-.55228475 0-1-.4477153-1-1v-4z" fill="#34495f"/><path id="Shape" d="m25 30-1.839 9.2c-.0951286.4660347-.5053558.8005727-.981.8h-1.18c-.5522847 0-1-.4477153-1-1v-9z" fill="#34495f"/><path id="Shape" d="m6 30h25.7c1.3723441.0001192 2.7140249-.4059341 3.856-1.167.2781551-.1854732.4452244-.4976789.4452244-.832s-.1670693-.6465268-.4452244-.832c-1.1417518-.7617726-2.4834496-1.1685269-3.856-1.169h-25.7c-1.1045695 0-2 .8954305-2 2s.8954305 2 2 2z" fill="#3d5c6d"/><path id="Shape" d="m46 50v5c0 1.6568542-1.3431458 3-3 3h-28c-1.6568542 0-3-1.3431458-3-3v-5c0 1.6568542 1.3431458 3 3 3h28c1.6568542 0 3-1.3431458 3-3z" fill="#1d80bd"/></g></g></svg>