<svg id="Capa_1" enable-background="new 0 0 512 512" height="512" viewBox="0 0 512 512" width="512" xmlns="http://www.w3.org/2000/svg"><g><path d="m291.581 458.334 5.662 38.835h194.252c1.136 0 2.057-.921 2.057-2.057v-31.742z" fill="#ffc250"/><path d="m493.552 246.456-213.178-38.145 7.267 255.06h205.911z" fill="#e7ecf1"/><path d="m359.064 408.578c-10.1 0-18.316-8.216-18.316-18.315v-73.778c0-10.099 8.216-18.315 18.316-18.315h73.778c10.1 0 18.316 8.216 18.316 18.315v73.778c0 10.099-8.216 18.315-18.316 18.315z" fill="#da4a54"/><path d="m39.119 463.37v31.973c0 1.136.921 2.057 2.057 2.057h255.122c1.136 0 2.057-.921 2.057-2.057v-31.973z" fill="#ffd064"/><path d="m169.819 87.454c-.598-.598-1.567-.598-2.164 0l-128.536 128.536v247.381h259.235v-247.381z" fill="#f6f9f9"/><path d="m432.842 393.126h-73.778c-1.581 0-2.863-1.282-2.863-2.863v-73.778c0-1.581 1.282-2.863 2.863-2.863h73.778c1.581 0 2.863 1.282 2.863 2.863v73.778c0 1.581-1.282 2.863-2.863 2.863z" fill="#90d8f9"/><g fill="#dd636e"><path d="m335.798 138.006c.001-.002.002-.004.003-.005-.001.001-.002.003-.003.005z"/><path d="m335.876 137.854c.001-.002.001-.003.002-.005-.001.002-.002.003-.002.005z"/><path d="m335.944 137.634c.006-.03.011-.06.014-.091-.003.031-.008.061-.014.091z"/><path d="m335.852 137.906c0-.001.001-.002.001-.002s0 .001-.001.002z"/><path d="m334.857 138.569h.001s0 0-.001 0z"/><path d="m334.975 138.557c.005-.001.01-.002.015-.003-.005.002-.01.003-.015.003z"/><path d="m335.145 138.518c.004-.001.007-.002.01-.004-.003.002-.007.003-.01.004z"/></g><path d="m352.577 345.647v15.453h35.649v37.529h15.453v-37.529h36.112v-15.453h-36.112v-35.047h-15.453v35.047z" fill="#da4a54"/><path d="m188.314 257.946v12.205c0 4.267-3.459 7.726-7.726 7.726s-7.726-3.459-7.726-7.726v-12.205c0-3.544-2.883-6.427-6.427-6.427h-6.427v18.632c0 4.267-3.459 7.726-7.726 7.726s-7.726-3.459-7.726-7.726v-26.358c0-4.267 3.459-7.726 7.726-7.726h14.153c12.064 0 21.879 9.815 21.879 21.879zm-54.781-27.332c0 4.992-1.759 9.581-4.689 13.18 2.93 3.599 4.689 8.187 4.689 13.179 0 11.527-9.378 20.905-20.905 20.905h-15.128c-4.267 0-7.726-3.459-7.726-7.726v-52.717c0-4.267 3.459-7.726 7.726-7.726h15.128c11.527-.001 20.905 9.378 20.905 20.905zm-28.307 5.453h7.401c3.007 0 5.453-2.446 5.453-5.453s-2.446-5.453-5.453-5.453h-7.401zm12.854 20.905c0-3.007-2.446-5.453-5.453-5.453h-7.401v10.905h7.401c3.007.001 5.453-2.445 5.453-5.452zm120.326-13.179c2.93 3.599 4.689 8.187 4.689 13.179 0 11.527-9.378 20.905-20.905 20.905h-15.127c-4.267 0-7.726-3.459-7.726-7.726v-52.717c0-4.267 3.459-7.726 7.726-7.726h15.127c11.527 0 20.905 9.378 20.905 20.905.001 4.993-1.758 9.581-4.689 13.18zm-23.617-7.726h7.401c3.007 0 5.453-2.446 5.453-5.453s-2.446-5.453-5.453-5.453h-7.401zm12.854 20.905c0-3.007-2.446-5.453-5.453-5.453h-7.401v10.905h7.401c3.007.001 5.453-2.445 5.453-5.452z" fill="#dd636e"/><path d="m214.751 497.4h-92.03v-181.053c0-.878.712-1.589 1.589-1.589h88.851c.878 0 1.589.712 1.589 1.589v181.053z" fill="#dd636e"/><circle cx="200.359" cy="407.518" fill="#ffd064" r="14.393"/><path d="m280.418 70.517h-111.682l151.076 175.602c-.218.218-.502.331-.788.337h174.528c.286-.007.569-.119.788-.337l17.322-17.323c.45-.45.45-1.181 0-1.631l-140.881-140.881z" fill="#da4a54"/><path d="m19.291 246.119 148.363-148.363c.598-.598 1.567-.598 2.164 0l148.363 148.363c.45.45 1.181.45 1.631 0l17.322-17.323c.45-.45.45-1.181 0-1.631l-148.362-148.362c-11.048-11.047-29.023-11.048-40.071 0l-148.363 148.363c-.45.45-.45 1.181 0 1.631l17.322 17.322c.451.451 1.181.451 1.631 0z" fill="#dd636e"/><path d="m327.292 39.922s8.152 98.647 7.505 98.649h34.811c.648 0 1.173-.525 1.173-1.173v-93.685z" fill="#c6d0da"/><path d="m335.968 137.398v-97.476l-55.55 3.791v53.235c0 .311.124.609.344.829l39.665 39.666c.722.722 1.702 1.128 2.724 1.128h11.644c.648 0 1.173-.525 1.173-1.173z" fill="#dae4ea"/><path d="m335.968 14.6h44.16c.76 0 1.375.616 1.375 1.375v26.362c0 .76-.616 1.375-1.375 1.375h-44.16l-10.832-17.648z" fill="#da4a54"/><path d="m335.968 14.6h-64.896c-.76 0-1.375.616-1.375 1.375v26.362c0 .76.616 1.375 1.375 1.375h64.896z" fill="#dd636e"/></g></svg>