<svg id="Layer_1" enable-background="new 0 0 512 512" height="512" viewBox="0 0 512 512" width="512" xmlns="http://www.w3.org/2000/svg"><g><path d="m320.267 144.6h-128.534c-8.284 0-15-6.716-15-15v-34.267c0-8.284 6.716-15 15-15h128.533c8.284 0 15 6.716 15 15v34.267c.001 8.284-6.715 15-14.999 15z" fill="#fae3cd"/><path d="m320.267 80.333h-64.267v64.267h64.267c8.284 0 15-6.716 15-15v-34.267c0-8.284-6.716-15-15-15z" fill="#f6d3ae"/><path d="m335.267 126.06h-158.534l-30.55 61.099c-2.325 4.649-2.077 10.172.656 14.594 2.733 4.423 7.562 7.114 12.76 7.114h192.801c5.198 0 10.026-2.691 12.76-7.114 2.733-4.422 2.981-9.944.656-14.594z" fill="#fff4eb"/><g fill="#fae3cd"><path d="m335.267 126.06h-79.267v82.807h96.4c5.198 0 10.026-2.691 12.76-7.114 2.733-4.422 2.981-9.944.656-14.594z"/><path d="m352.4 415.6h-192.8c-8.284 0-15-6.716-15-15v-45c0-8.284 6.716-15 15-15h192.8c8.284 0 15 6.716 15 15v45c0 8.284-6.715 15-15 15z"/><path d="m352.4 253.866h-192.8c-8.284 0-15-6.716-15-15v-45c0-8.284 6.716-15 15-15h192.8c8.284 0 15 6.716 15 15v45c0 8.285-6.715 15-15 15z"/></g><path d="m352.4 178.866h-96.4v75h96.4c8.284 0 15-6.716 15-15v-45c0-8.284-6.715-15-15-15z" fill="#f6d3ae"/><path d="m352.4 340.599h-96.4v75h96.4c8.284 0 15-6.716 15-15v-45c0-8.284-6.715-15-15-15z" fill="#f6d3ae"/><path d="m144.6 238.866h222.801v116.733h-222.801z" fill="#f6d3ae"/><path d="m256 238.866h111.4v116.733h-111.4z" fill="#f1c290"/><path d="m256 0c-141.159 0-256 114.841-256 256s114.841 256 256 256 256-114.841 256-256-114.841-256-256-256zm0 482c-124.617 0-226-101.383-226-226 0-56.922 21.162-108.989 56.02-148.768l318.746 318.75c-39.778 34.857-91.845 56.018-148.766 56.018zm169.98-77.232-318.747-318.749c39.779-34.858 91.846-56.019 148.767-56.019 124.617 0 226 101.383 226 226 0 56.922-21.162 108.989-56.02 148.768z" fill="#ff5050"/><path d="m512 256c0-141.159-114.841-256-256-256v30c124.617 0 226 101.383 226 226 0 56.922-21.162 108.989-56.02 148.768l-169.98-169.981v42.426l148.767 148.768c-39.779 34.858-91.846 56.019-148.767 56.019v30c141.159 0 256-114.841 256-256z" fill="#e10032"/></g></svg>