<svg width="510" height="470" xmlns="http://www.w3.org/2000/svg">

 <g>
  <title>background</title>
  <rect fill="none" id="canvas_background" height="472" width="512" y="-1" x="-1"/>
 </g>
 <g>
  <title>Layer 1</title>
  <g id="svg_1">
   <g id="svg_2">
    <path id="svg_3" fill="#4a80aa" d="m319.209,425.891c-9.486,-6.328 -15.263,-17.521 -15.263,-29.575l0,-30.161l-4.379,-4.181l-82.929,0l-8.585,4.181l0,30.161c0,12.054 -5.776,23.247 -15.263,29.575l-21.257,14.18l4.414,4.06l160.964,0l3.556,-4.06l-21.258,-14.18z"/>
    <path id="svg_4" fill="#407093" d="m236.69,425.891c9.487,-6.328 15.263,-17.521 15.263,-29.575l0,-30.161l8.585,-4.181l-43.9,0l-8.585,4.181l0,30.161c0,12.054 -5.776,23.247 -15.263,29.575l-21.257,14.18l4.414,4.06l43.9,0l-4.414,-4.06l21.257,-14.18z"/>
    <g id="svg_5">
     <path id="svg_6" fill="#3f6d8e" d="m482.31,-0.209l-452.621,0c-16.371,0 -29.689,13.318 -29.689,29.689l0,306.986c0,16.371 13.318,29.689 29.689,29.689l452.621,0c16.371,0 29.689,-13.318 29.689,-29.689l0,-306.986c0,-16.371 -13.318,-29.689 -29.689,-29.689z"/>
    </g>
    <path id="svg_7" fill="#365e7d" d="m33.652,336.466l0,-306.986c0,-16.371 13.318,-29.689 29.689,-29.689l-33.652,0c-16.371,0 -29.689,13.318 -29.689,29.689l0,306.986c0,16.371 13.318,29.689 29.689,29.689l33.652,0c-16.371,0 -29.689,-13.318 -29.689,-29.689z"/>
    <path id="svg_8" fill="#e4f6ff" d="m475.211,65.8l-435.762,0l-7.312,4.336l0,259.61c0,2.36 1.912,4.272 4.272,4.272l439.181,0c2.359,0 4.272,-1.912 4.272,-4.272c0,-134.752 0,-123.787 0,-259.61l-4.651,-4.336z"/>
    <path id="svg_9" fill="#d3effb" d="m78.531,329.746l0,-263.946l-39.082,0l-7.312,4.336l0,259.61c0,2.36 1.912,4.272 4.272,4.272l46.394,0c-2.36,0 -4.272,-1.912 -4.272,-4.272z"/>
    <path id="svg_10" fill="#3f6d8e" d="m358.159,440.071l-204.319,0c-5.689,0 -10.301,4.612 -10.301,10.301l0,11.535c0,5.69 4.612,10.301 10.301,10.301l204.319,0c5.689,0 10.301,-4.612 10.301,-10.301l0,-11.535c0,-5.69 -4.612,-10.301 -10.301,-10.301z"/>
    <path id="svg_11" fill="#365e7d" d="m187.439,461.907l0,-11.535c0,-5.69 4.612,-10.301 10.301,-10.301l-43.9,0c-5.689,0 -10.301,4.612 -10.301,10.301l0,11.535c0,5.69 4.612,10.301 10.301,10.301l43.9,0c-5.689,0 -10.301,-4.612 -10.301,-10.301z"/>
    <path id="svg_12" fill="#dd636e" d="m78.531,31.928l-42.122,0c-2.359,0 -4.272,1.912 -4.272,4.272l0,33.936l46.394,0l1.867,-1.502l0,-34.125l-1.867,-2.581z"/>
    <path id="svg_13" fill="#b1e4f9" d="m475.59,31.928l-397.059,0l0,38.208l401.331,0c0,-17.883 0,-30.339 0,-33.936c0,-2.36 -1.913,-4.272 -4.272,-4.272z"/>
   </g>
   <path id="svg_14" fill="#dd636e" d="m311.425,281.634l0,-78.254c0,-1.273 -1.032,-2.304 -2.304,-2.304l-25.922,0c-1.273,0 -2.304,1.032 -2.304,2.304l0,78.254l30.53,0z"/>
   <path id="svg_15" fill="#ffaa5b" d="m372.487,281.634l0,-106.585c0,-1.273 -1.032,-2.304 -2.304,-2.304l-25.923,0c-1.273,0 -2.304,1.032 -2.304,2.304l0,106.586l30.531,0l0,-0.001z"/>
   <path id="svg_16" fill="#b3e59f" d="m433.549,281.634l0,-134.917c0,-1.273 -1.032,-2.304 -2.304,-2.304l-25.922,0c-1.273,0 -2.304,1.032 -2.304,2.304l0,134.918l30.53,0l0,-0.001z"/>
   <path id="svg_17" fill="#da4a54" d="m300.54,201.076l-17.341,0c-1.273,0 -2.304,1.032 -2.304,2.304l0,78.254l17.341,0l0,-78.254c0,-1.272 1.031,-2.304 2.304,-2.304z"/>
   <path id="svg_18" fill="#ff9838" d="m361.602,172.744l-17.341,0c-1.273,0 -2.304,1.032 -2.304,2.304l0,106.586l17.341,0l0,-106.585c-0.001,-1.273 1.031,-2.305 2.304,-2.305z"/>
   <path id="svg_19" fill="#95d6a4" d="m422.664,144.412l-17.341,0c-1.273,0 -2.304,1.032 -2.304,2.304l0,134.918l17.341,0l0,-134.917c-0.001,-1.273 1.031,-2.305 2.304,-2.305z"/>
   <g id="svg_20">
    <path id="svg_21" fill="#b1e4f9" d="m441.313,289.36l-168.176,0c-4.267,0 -7.726,-3.459 -7.726,-7.726c0,-4.268 3.459,-7.726 7.726,-7.726l168.176,0c4.267,0 7.726,3.459 7.726,7.726s-3.459,7.726 -7.726,7.726z"/>
   </g>
   <g id="svg_22">
    <path id="svg_23" fill="#3f6d8e" d="m82.384,128.208l141.229,0l0,153.426l-141.229,0l0,-153.426z"/>
    <path id="svg_24" fill="#365e7d" d="m82.384,128.208l37.949,0l0,153.426l-37.949,0l0,-153.426z"/>
    <path id="svg_25" fill="#d3effb" d="m152.998,218.017l-29.808,0c-2.736,0 -4.954,2.218 -4.954,4.954l0,58.663l34.763,0l1.717,-2.506l0,-59.235l-1.718,-1.876z"/>
    <path id="svg_26" fill="#ffaa5b" d="m133.665,175.762l-1.167,0c-10.677,0 -19.333,-8.656 -19.333,-19.333l0,-41.79l39.833,0l0,41.79c0,10.677 -8.656,19.333 -19.333,19.333z"/>
    <path id="svg_27" fill="#dd636e" d="m152.998,114.638l0,41.207c0,11 8.917,19.917 19.917,19.917c11,0 19.917,-8.917 19.917,-19.917l0,-41.207l-39.834,0z"/>
    <path id="svg_28" fill="#dd636e" d="m73.332,122.371l0,33.474c0,11 8.917,19.917 19.917,19.917c10.999,0 19.917,-8.917 19.917,-19.917l0,-41.207l-32.102,0c-4.27,0 -7.732,3.462 -7.732,7.733z"/>
    <path id="svg_29" fill="#ffaa5b" d="m224.932,114.638l-32.101,0l0,41.207c0,11 8.917,19.917 19.917,19.917c10.999,0 19.917,-8.917 19.917,-19.917l0,-33.474c0,-4.271 -3.462,-7.733 -7.733,-7.733z"/>
    <path id="svg_30" fill="#ff9838" d="m131.536,155.845l0,-41.207l-18.371,0l0,41.207c0,11 8.917,19.917 19.917,19.917c3.316,0 6.436,-0.822 9.186,-2.256c-6.374,-3.321 -10.732,-9.977 -10.732,-17.661z"/>
    <path id="svg_31" fill="#da4a54" d="m171.37,155.845l0,-41.207l-18.372,0l0,41.207c0,10.999 8.917,19.917 19.917,19.917c3.316,0 6.436,-0.822 9.186,-2.256c-6.373,-3.321 -10.731,-9.977 -10.731,-17.661z"/>
    <path id="svg_32" fill="#da4a54" d="m91.703,155.845l0,-41.207l-10.639,0c-4.271,0 -7.733,3.462 -7.733,7.732l0,33.475c0,10.999 8.917,19.917 19.917,19.917c3.316,0 6.436,-0.822 9.186,-2.256c-6.373,-3.321 -10.731,-9.977 -10.731,-17.661z"/>
    <path id="svg_33" fill="#ff9838" d="m211.203,155.845l0,-41.207l-18.372,0l0,41.207c0,10.999 8.917,19.917 19.917,19.917c3.316,0 6.436,-0.822 9.186,-2.256c-6.373,-3.321 -10.731,-9.977 -10.731,-17.661z"/>
    <path id="svg_34" fill="#e4f6ff" d="m182.806,218.017l-29.808,0l0,63.617l34.762,0l0,-58.663c0,-2.736 -2.218,-4.954 -4.954,-4.954z"/>
    <g id="svg_35">
     <path id="svg_36" fill="#b3e59f" d="m232.665,289.36l-159.334,0c-4.267,0 -7.726,-3.459 -7.726,-7.726s3.459,-7.726 7.726,-7.726l159.334,0c4.267,0 7.726,3.459 7.726,7.726s-3.459,7.726 -7.726,7.726z"/>
    </g>
   </g>
  </g>
 </g>
</svg>