<svg id="Flat" height="512" viewBox="0 0 512 512" width="512" xmlns="http://www.w3.org/2000/svg"><path d="m88 24h256v368h-256z" fill="#cbbcae"/><path d="m56 24h256v368h-256z" fill="#e2d2c2"/><path d="m232 24h-208v368h256v-320z" fill="#fae8d8"/><path d="m56 56h112v128h-112z" fill="#a4d4f4"/><path d="m96 144h32a16 16 0 0 1 16 16v24a0 0 0 0 1 0 0h-64a0 0 0 0 1 0 0v-24a16 16 0 0 1 16-16z" fill="#2b70a8"/><g fill="#e2d2c2"><path d="m248 112h-48a8 8 0 0 1 0-16h48a8 8 0 0 1 0 16z"/><path d="m248 144h-48a8 8 0 0 1 0-16h48a8 8 0 0 1 0 16z"/><path d="m104 224h-48a8 8 0 0 1 0-16h48a8 8 0 0 1 0 16z"/><path d="m168 256h-112a8 8 0 0 1 0-16h112a8 8 0 0 1 0 16z"/><path d="m168 288h-112a8 8 0 0 1 0-16h112a8 8 0 0 1 0 16z"/><path d="m168 320h-112a8 8 0 0 1 0-16h112a8 8 0 0 1 0 16z"/><path d="m168 352h-112a8 8 0 0 1 0-16h112a8 8 0 0 1 0 16z"/></g><path d="m232 24v48h48z" fill="#cbbcae"/><path d="m208 200h24a0 0 0 0 1 0 0v40a0 0 0 0 1 0 0h-40a0 0 0 0 1 0 0v-24a16 16 0 0 1 16-16z" fill="#fcb442"/><path d="m392 200h24a16 16 0 0 1 16 16v24a0 0 0 0 1 0 0h-40a0 0 0 0 1 0 0v-40a0 0 0 0 1 0 0z" fill="#fcb442"/><path d="m152 232h320a16 16 0 0 1 16 16v240a0 0 0 0 1 0 0h-352a0 0 0 0 1 0 0v-240a16 16 0 0 1 16-16z" fill="#8a523a"/><path d="m168 336h288a0 0 0 0 1 0 0v104a16 16 0 0 1 -16 16h-256a16 16 0 0 1 -16-16v-104a0 0 0 0 1 0 0z" fill="#5d3727"/><path d="m296 360h32v24h-32z" fill="#dd9d3a"/><path d="m400 200v48h-32v-32a16 16 0 0 0 -16-16h-80a16 16 0 0 0 -16 16v32h-32v-48a32 32 0 0 1 32-32h112a32 32 0 0 1 32 32z" fill="#5d3727"/><path d="m152 232h320a16 16 0 0 1 16 16v112a0 0 0 0 1 0 0h-352a0 0 0 0 1 0 0v-112a16 16 0 0 1 16-16z" fill="#976048"/><path d="m288 328h48v32h-48z" fill="#fcb442"/><path d="m96 104h32a0 0 0 0 1 0 0v32a16 16 0 0 1 -16 16 16 16 0 0 1 -16-16v-32a0 0 0 0 1 0 0z" fill="#f5cbaa"/><path d="m104 88h32a0 0 0 0 1 0 0v16a16 16 0 0 1 -16 16h-16a16 16 0 0 1 -16-16 16 16 0 0 1 16-16z" fill="#976048"/></svg>