<?xml version="1.0" encoding="iso-8859-1"?>
<!-- Generator: Adobe Illustrator 22.1.0, SVG Export Plug-In . SVG Version: 6.00 Build 0)  -->
<svg xmlns="http://www.w3.org/2000/svg" xmlns:xlink="http://www.w3.org/1999/xlink" version="1.1" id="Layer_3" x="0px" y="0px" viewBox="0 0 64 64" style="enable-background:new 0 0 64 64;" xml:space="preserve" width="512" height="512">
<g>
	<rect x="2" y="2" style="fill:#CCCCCC;" width="42" height="54"/>
	<rect x="2" y="2" style="fill:#E6E6E6;" width="39" height="54"/>
	<rect x="28" y="30" style="fill:#BF5043;" width="12" height="20"/>
	<rect x="28" y="30" style="fill:#FF6A59;" width="9" height="20"/>
	<polygon style="fill:#FFF284;" points="48,29 48,9 62,9 62,29 59,29 55,33 55,29  "/>
	<path style="fill:#666666;" d="M46,50l11.293,11.293C57.746,61.746,58.36,62,59,62l0,0c0.64,0,1.254-0.254,1.707-0.707l0.586-0.586   C61.746,60.254,62,59.64,62,59l0,0c0-0.64-0.254-1.254-0.707-1.707L50,46"/>
	<path style="fill:#808080;" d="M58.293,57.293L48.5,47.5L46,50l11.293,11.293c0.064,0.064,0.137,0.114,0.207,0.17   c0.07-0.055,0.143-0.106,0.207-0.17l0.586-0.586C58.746,60.254,59,59.64,59,59C59,58.36,58.746,57.746,58.293,57.293z"/>
	<circle style="fill:#758999;" cx="42" cy="42" r="10"/>
	<circle style="fill:#ACB8C2;" cx="42" cy="42" r="5"/>
	<ellipse style="fill:#C8D0D6;" cx="40.5" cy="42" rx="3.5" ry="4.746"/>
	<g>
		<rect x="8" y="5" style="fill:#666666;" width="6" height="2"/>
	</g>
	<g>
		<path style="fill:#666666;" d="M20,15c-2.206,0-4-1.794-4-4V9c0-2.206,1.794-4,4-4s4,1.794,4,4v2C24,13.206,22.206,15,20,15z     M20,7c-1.103,0-2,0.897-2,2v2c0,1.103,0.897,2,2,2s2-0.897,2-2V9C22,7.897,21.103,7,20,7z"/>
	</g>
	<g>
		<path style="fill:#666666;" d="M31,11h-4c-0.553,0-1-0.447-1-1V6c0-0.553,0.447-1,1-1h4c1.654,0,3,1.346,3,3S32.654,11,31,11z     M28,9h3c0.552,0,1-0.448,1-1s-0.448-1-1-1h-3V9z"/>
	</g>
	<g>
		<path style="fill:#666666;" d="M31,15h-4c-0.553,0-1-0.447-1-1v-4c0-0.553,0.447-1,1-1h4c1.654,0,3,1.346,3,3S32.654,15,31,15z     M28,13h3c0.552,0,1-0.448,1-1s-0.448-1-1-1h-3V13z"/>
	</g>
	<g>
		<path style="fill:#666666;" d="M9,15H7c-0.266,0-0.52-0.105-0.707-0.293l-2-2l1.414-1.414L7.414,13h1.172L10,11.586V6h2v6    c0,0.266-0.105,0.52-0.293,0.707l-2,2C9.52,14.895,9.266,15,9,15z"/>
	</g>
	<g>
		<rect x="5" y="17" style="fill:#666666;" width="16" height="2"/>
	</g>
	<g>
		<rect x="5" y="21" style="fill:#666666;" width="36" height="2"/>
	</g>
	<g>
		<rect x="5" y="25" style="fill:#666666;" width="36" height="2"/>
	</g>
	<g>
		<rect x="5" y="29" style="fill:#666666;" width="4" height="2"/>
	</g>
	<g>
		<rect x="11" y="29" style="fill:#666666;" width="14" height="2"/>
	</g>
	<g>
		<rect x="5" y="33" style="fill:#666666;" width="4" height="2"/>
	</g>
	<g>
		<rect x="11" y="33" style="fill:#666666;" width="14" height="2"/>
	</g>
	<g>
		<rect x="5" y="37" style="fill:#666666;" width="4" height="2"/>
	</g>
	<g>
		<rect x="11" y="37" style="fill:#666666;" width="14" height="2"/>
	</g>
	<g>
		<rect x="5" y="41" style="fill:#666666;" width="4" height="2"/>
	</g>
	<g>
		<rect x="11" y="41" style="fill:#666666;" width="14" height="2"/>
	</g>
	<g>
		<rect x="5" y="45" style="fill:#666666;" width="4" height="2"/>
	</g>
	<g>
		<rect x="11" y="45" style="fill:#666666;" width="14" height="2"/>
	</g>
	<g>
		<rect x="5" y="49" style="fill:#666666;" width="4" height="2"/>
	</g>
	<g>
		<rect x="11" y="49" style="fill:#666666;" width="14" height="2"/>
	</g>
	<g>
		<rect x="51" y="12" style="fill:#666666;" width="8" height="2"/>
	</g>
	<g>
		<rect x="51" y="16" style="fill:#666666;" width="8" height="2"/>
	</g>
	<g>
		<rect x="51" y="20" style="fill:#666666;" width="8" height="2"/>
	</g>
	<g>
		<rect x="51" y="24" style="fill:#666666;" width="8" height="2"/>
	</g>
</g>
</svg>
