<svg id="Flat" height="512" viewBox="0 0 512 512" width="512" xmlns="http://www.w3.org/2000/svg"><path d="m232 56h-16a24.027 24.027 0 0 0 -24 24v16a8 8 0 0 0 8 8h8v-24a8.009 8.009 0 0 1 8-8h16a8.009 8.009 0 0 1 8 8v24h8a8 8 0 0 0 8-8v-16a24.027 24.027 0 0 0 -24-24z" fill="#95573a"/><path d="m24 296v-48a48 48 0 0 1 48-48h245.194c20.969 0 39.773 11.921 47.3 29.987l27.506 66.013z" fill="#266fab"/><path d="m473.071 346.628c-10.156-32.5-40.254-50.628-74.3-50.628h-150.771v-96a8 8 0 0 0 -16 0v96h-96v-96a8 8 0 0 0 -16 0v96h-96v112h464z" fill="#3397e8"/><rect fill="#ad6643" height="160" rx="16" transform="matrix(0 1 -1 0 351.904 -64.096)" width="111.808" x="152.096" y="63.904"/><rect fill="#ffd33a" height="143.808" rx="13.042" width="64" x="112" y="56"/><path d="m136 56h16v143.809h-16z" fill="#f2c837"/><path d="m24 384h464v32h-464z" fill="#266fab"/><circle cx="128" cy="400" fill="#7e8589" r="40"/><circle cx="368" cy="400" fill="#7e8589" r="40"/><path d="m488 456h-464a8 8 0 0 1 0-16h464a8 8 0 0 1 0 16z" fill="#b6b9ba"/><path d="m272 336h-16a8 8 0 0 1 0-16h16a8 8 0 0 1 0 16z" fill="#266fab"/><path d="m80 168h240v32h-240z" fill="#3397e8"/><path d="m160 336h-16a8 8 0 0 1 0-16h16a8 8 0 0 1 0 16z" fill="#266fab"/><circle cx="128" cy="400" fill="#b6b9ba" r="16"/><circle cx="368" cy="400" fill="#b6b9ba" r="16"/><g fill="#e9eef2"><path d="m24 352h32v32h-32z"/><path d="m482.16 384h-42.16v-32h34.38z"/></g></svg>