<?xml version="1.0" encoding="utf-8"?>
<!-- Generator: Adobe Illustrator 24.0.1, SVG Export Plug-In . SVG Version: 6.00 Build 0)  -->
<svg version="1.1" id="Capa_1" xmlns="http://www.w3.org/2000/svg" xmlns:xlink="http://www.w3.org/1999/xlink" x="0px" y="0px"
	 viewBox="0 0 512 257" style="enable-background:new 0 0 512 257;" xml:space="preserve">
<style type="text/css">
	.st0{fill:#F9A01B;}
	.st1{fill:#F7833B;}
	.st2{fill:#507575;}
	.st3{fill:#FFD74A;}
	.st4{fill:#F9CB2A;}
	.st5{fill:#B07C64;}
	.st6{fill:#ECF0F0;}
	.st7{fill:#C5D1D1;}
	.st8{fill:#F7B906;}
	.st9{fill:#974F2A;}
	.st10{fill:#803716;}
	.st11{fill:#9EB2B2;}
	.st12{fill:#8AA3A3;}
	.st13{fill:#F3561D;}
	.st14{fill:#4B5165;}
	.st15{fill:#FFD3BD;}
	.st16{fill:#FFBE9D;}
	.st17{fill:#8EAFE2;}
	.st18{fill:#7C93DD;}
	.st19{fill:#EDA1AB;}
</style>
<path class="st0" d="M409.9,147.2c-9.8,0-17.8,8-17.8,17.8c0,9.8,8,17.8,17.8,17.8c9.8,0,17.8-8,17.8-17.8
	C427.7,155.2,419.7,147.2,409.9,147.2z"/>
<path class="st1" d="M409.9,154.4c-5.9,0-10.7,4.8-10.7,10.7s4.8,10.7,10.7,10.7c5.9,0,10.7-4.8,10.7-10.7S415.8,154.4,409.9,154.4z
	"/>
<path class="st0" d="M324.6,147.2c-9.8,0-17.8,8-17.8,17.8c0,9.8,8,17.8,17.8,17.8s17.8-8,17.8-17.8
	C342.4,155.2,334.4,147.2,324.6,147.2z"/>
<path class="st1" d="M324.6,154.4c-5.9,0-10.7,4.8-10.7,10.7s4.8,10.7,10.7,10.7s10.7-4.8,10.7-10.7S330.5,154.4,324.6,154.4z"/>
<g>
	<path class="st2" d="M423.4,202.3c-0.9-0.2-1.8-0.4-2.8-0.6l-10.7,6V229l10.7,6c0.9-0.2,1.9-0.4,2.8-0.6c17.3-3.9,25.7-9.2,25.7-16
		C449,211.5,440.6,206.2,423.4,202.3z"/>
	<path class="st2" d="M311.2,202.3c-17.3,3.9-25.7,9.2-25.7,16s8.4,12.1,25.7,16c0.9,0.2,1.8,0.4,2.8,0.6l7.1-6v-21.3l-7.1-6
		C313,201.9,312.1,202.1,311.2,202.3z"/>
</g>
<path class="st3" d="M367.3,143.7c-29.4,0-53.3,23.9-53.3,53.3v38c14.7,3,33.5,4.7,53.3,4.7s38.7-1.7,53.3-4.7v-38
	C420.6,167.6,396.7,143.7,367.3,143.7z"/>
<path class="st4" d="M372.6,144c-1.8-0.2-3.5-0.3-5.3-0.3c-29.4,0-53.3,23.9-53.3,53.3v38c3.4,0.7,6.9,1.3,10.7,1.9V197
	C324.6,169.4,345.7,146.6,372.6,144z"/>
<g>
	<path class="st5" d="M381.9,182.8h-0.4c-2,0-3.6-1.6-3.6-3.6s1.6-3.6,3.6-3.6h0.4c2,0,3.6,1.6,3.6,3.6S383.9,182.8,381.9,182.8z"/>
	<path class="st5" d="M353.5,182.8H353c-2,0-3.6-1.6-3.6-3.6s1.6-3.6,3.6-3.6h0.4c2,0,3.6,1.6,3.6,3.6S355.4,182.8,353.5,182.8z"/>
</g>
<path class="st6" d="M373.7,225.5h-12.8c-0.4,0-0.8-0.3-0.9-0.7l-3.4-13.5l10.7-7.1l10.7,7.1l-3.4,13.5
	C374.4,225.2,374.1,225.5,373.7,225.5z"/>
<polygon class="st7" points="367.3,204.1 365.5,205.3 365.5,225.5 369,225.5 369,205.3 "/>
<path class="st8" d="M392,210.2c-0.6-1.9-2.6-2.9-4.5-2.3c-1.6,0.5-4.9,1.2-8.4,0c-5.8-2-8.1-7.4-8.5-8.5c-0.5-1.4-1.8-2.3-3.3-2.3
	c-1.5,0-2.9,0.9-3.4,2.3c-0.4,1.1-2.7,6.6-8.5,8.5c-3.6,1.2-6.8,0.5-8.4,0c-1.9-0.6-3.9,0.4-4.5,2.3c-0.6,1.9,0.4,3.9,2.3,4.5
	c1.4,0.5,3.7,1,6.5,1c1.9,0,4.1-0.3,6.4-1c4.4-1.5,7.5-4.2,9.5-6.9c2,2.6,5.1,5.4,9.5,6.9c2.3,0.8,4.4,1,6.4,1c2.8,0,5.1-0.6,6.5-1
	C391.6,214,392.6,212,392,210.2z"/>
<path class="st9" d="M367.3,182.8c-8,0-14.2,4.7-14.2,10.7c0,6,6.2,10.7,14.2,10.7c8,0,14.2-4.7,14.2-10.7
	C381.5,187.5,375.2,182.8,367.3,182.8z"/>
<path class="st10" d="M370.8,200.6c-8,0-14.2-4.7-14.2-10.7c0-1.6,0.5-3.2,1.3-4.5c-3,1.9-4.9,4.8-4.9,8.1c0,6,6.2,10.7,14.2,10.7
	c5.8,0,10.7-2.5,12.9-6.1C377.7,199.6,374.4,200.6,370.8,200.6z"/>
<path class="st11" d="M390,66.7l-7.3,20.1c-0.3,0.9-0.3,1.9,0.1,2.7c0.4,0.9,1.1,1.5,2,1.8L509.5,136v-30.2L394.5,64.6
	C392.7,63.9,390.7,64.9,390,66.7z"/>
<path class="st12" d="M384.6,81.5l-1.9,5.2c-0.3,0.9-0.3,1.9,0.1,2.7c0.4,0.9,1.1,1.5,2,1.8L509.5,136v-9.4L384.6,81.5z"/>
<path class="st13" d="M421,41.7c-0.3-1.1-1.1-2-2.2-2.4l-40.1-14.5c-1.1-0.4-2.3-0.2-3.2,0.4c-0.9,0.7-1.5,1.7-1.5,2.9
	c-0.2,14.2-2.8,28.1-7.6,41.4c-4.8,13.3-11.8,25.6-20.7,36.7c-0.7,0.9-1,2.1-0.7,3.2c0.3,1.1,1.1,2,2.2,2.4l40.1,14.5
	c0.4,0.1,0.8,0.2,1.2,0.2c0.7,0,1.4-0.2,2-0.6c0.9-0.7,1.5-1.7,1.5-2.9c0.2-14.2,2.8-28.1,7.6-41.4s11.8-25.6,20.7-36.7
	C421.1,44,421.3,42.8,421,41.7z"/>
<g>
	<path class="st0" d="M400.1,112l-53.5-19.4c-1.8-0.7-3.9,0.3-4.6,2.1l-7.3,20.1c-0.7,1.8,0.3,3.9,2.1,4.6l53.5,19.4
		c1.8,0.7,3.9-0.3,4.6-2.1l7.3-20.1C402.9,114.7,401.9,112.6,400.1,112z"/>
	<path class="st0" d="M429.1,31.7l-53.5-19.4c-1.8-0.7-3.9,0.3-4.6,2.1l-7.3,20.1c-0.7,1.8,0.3,3.9,2.1,4.6l53.5,19.4
		c1.8,0.7,3.9-0.3,4.6-2.1l7.3-20.1C431.9,34.4,431,32.4,429.1,31.7z"/>
</g>
<g>
	<path class="st1" d="M336.9,108.7l-2.2,6c-0.7,1.8,0.3,3.9,2.1,4.6l53.5,19.4c1.8,0.7,3.9-0.3,4.6-2.1l2.1-5.7L336.9,108.7z"/>
	<path class="st1" d="M365.4,30.1l-1.6,4.4c-0.7,1.8,0.3,3.9,2.1,4.6l53.5,19.4c1.8,0.7,3.9-0.3,4.6-2.1l1.6-4.5L365.4,30.1z"/>
</g>
<g>
	<path class="st14" d="M101.9,62.4C98.2,54,84.7,38.6,70,30.8c-3.7-2-8.2,0.3-8.9,4.5c-0.3,1.8-0.4,3.4-0.3,4.1
		c-13-3.5-25.4,4-38,8.5c-1.2,0.4-2.1,1.3-2.5,2.5c-4.4,12.6-12,25-8.5,38c-0.7-0.2-2.3,0-4.1,0.3c-4.1,0.6-6.5,5.2-4.5,8.9
		c7.8,14.7,23.2,28.2,31.6,31.9L101.9,62.4z"/>
	<path class="st15" d="M193.8,228.1c-1.6-8.2-18.9-55.6-25.6-69.6c1.1-8.5-1.1-16.5-6.7-22.1c-11.3-11.3-32.2-8.6-46.8,6
		c-14.6,14.6-17.2,35.5-6,46.8c0.2,0.2,0.4,0.3,0.6,0.5c-8,14.6-16.9,32.8-18.3,35.6c-2.9,6-0.5,13.2,5.5,16.1
		c6,2.9,13.2,0.5,16.1-5.5c4.1-8.3,14.1-28.4,21-40.5c6.7-1.4,13.6-4.8,19.5-10.1c7,18.1,15.9,43.3,16.8,47.6
		c1.3,6.5,7.7,10.8,14.2,9.5C190.9,241,195.1,234.6,193.8,228.1L193.8,228.1z"/>
	<path class="st14" d="M191.3,219.5c-5.4-16.6-17.7-49.7-23.1-61c1.1-8.5-1.1-16.5-6.7-22.1c-11.3-11.3-32.2-8.6-46.8,6
		c-14.6,14.6-17.2,35.5-6,46.8c0.2,0.2,0.4,0.3,0.6,0.5c-5,9.1-10.3,19.6-14,26.9c4.7,1.2,15.9,5.3,21.5,11
		c4.9-9.7,11.8-23.1,16.9-32.2c6.7-1.4,13.6-4.8,19.5-10.1c5.3,13.6,11.6,31.1,14.8,40.9C171.8,222,183.7,218,191.3,219.5
		L191.3,219.5z"/>
	<path class="st15" d="M74,210c-3.6,5.7-11.1,7.5-16.8,3.9c-5.7-3.6-7.5-11.1-3.9-16.8c4-6.4,21-49.2,21.8-56.3
		c0.8-6.7,6.8-11.5,13.5-10.8c6.7,0.8,11.5,6.8,10.8,13.5C98,155.5,79.3,201.6,74,210L74,210z"/>
	<path class="st16" d="M126.7,120.9c-4.9,4.7-12.6,4.5-17.3-0.4c-4.7-4.9-4.5-12.6,0.4-17.3c4.9-4.7,28-36.2,36-49.9
		c3.4-5.8,10.9-7.7,16.8-4.3s7.7,10.9,4.3,16.8C160.2,77.1,135.1,112.9,126.7,120.9L126.7,120.9z"/>
	<path class="st17" d="M142.8,170.4c6.5-6.5,27.3-30.2,16-39.4c-18.8-15.4-59.4-32-73.4-18s2.6,54.6,18,73.4
		C112.6,197.7,136.3,176.9,142.8,170.4z"/>
	<path class="st18" d="M109.1,136.6c7-7,12.3-15.4,15.5-24.3c-15.7-5.5-31.4-7.1-39.2,0.6c-7.7,7.7-6.2,23.5-0.6,39.2
		C93.7,149,102,143.7,109.1,136.6z"/>
	<circle class="st15" cx="35.5" cy="131" r="15.4"/>
	<circle class="st16" cx="103.5" cy="63.1" r="15.4"/>
	<ellipse transform="matrix(0.7071 -0.7071 0.7071 0.7071 -48.9235 79.0985)" class="st15" cx="71" cy="98.6" rx="48.4" ry="42.2"/>
	<path class="st16" d="M111.2,114.1c-46.8,36.6-78.7-6.6-82.5-26c-5.9,15.9-3.4,33.3,8.1,44.8c16.5,16.5,45.2,14.5,64.1-4.4
		C105.2,124.1,108.7,119.2,111.2,114.1L111.2,114.1z"/>
	<g>
		<g>
			<g>
				<g>
					
						<ellipse transform="matrix(0.7071 -0.7071 0.7071 0.7071 -74.9195 73.8499)" class="st19" cx="51.7" cy="127.4" rx="12.5" ry="10"/>
				</g>
				<g>
					
						<ellipse transform="matrix(0.7071 -0.7071 0.7071 0.7071 -26.8328 93.7734)" class="st19" cx="99.8" cy="79.3" rx="12.5" ry="10"/>
				</g>
			</g>
		</g>
		<g>
			<path class="st14" d="M50.1,118.5c-0.8,0-1.6-0.3-2.2-0.9l-3.6-3.6c-1.2-1.2-1.2-3.2,0-4.4c1.2-1.2,3.2-1.2,4.4,0l3.6,3.6
				c1.2,1.2,1.2,3.2,0,4.4C51.7,118.2,50.9,118.5,50.1,118.5z"/>
			<path class="st14" d="M87.8,80.8c-0.8,0-1.6-0.3-2.2-0.9L82,76.2c-1.2-1.2-1.2-3.2,0-4.4c1.2-1.2,3.2-1.2,4.4,0l3.6,3.6
				c1.2,1.2,1.2,3.2,0,4.4C89.4,80.4,88.6,80.8,87.8,80.8z"/>
			<path class="st14" d="M64.5,104.5c-0.3,0-0.6,0-0.9,0c-1.7-0.1-3-1.6-2.9-3.3c0.1-1.7,1.6-3,3.3-2.9c1.8,0.1,3.6-0.5,4.8-1.8
				c1.3-1.3,1.9-3,1.8-4.8c-0.1-1.7,1.2-3.2,2.9-3.3c1.7-0.1,3.2,1.2,3.3,2.9c0.2,3.6-1.1,7.1-3.6,9.7
				C71,103.2,67.8,104.5,64.5,104.5z"/>
		</g>
	</g>
</g>
<g>
	<g>
		<polygon points="255.3,113.9 255.3,81.9 246.1,81.9 246.1,113.9 214.1,113.9 214.1,123.1 246.1,123.1 246.1,155.1 255.3,155.1 
			255.3,123.1 287.3,123.1 287.3,113.9 		"/>
	</g>
</g>
</svg>
